<svg width="256" height="256" viewBox="0 0 256 256" fill="none" xmlns="http://www.w3.org/2000/svg">
<circle cx="174" cy="174" r="38" fill="#FFB623"/>
<path d="M169.459 45.8587C171.245 41.9813 176.755 41.9813 178.541 45.8587L187.735 65.8161C188.233 66.8983 189.102 67.7669 190.184 68.2655L210.141 77.4587C214.019 79.2448 214.019 84.7552 210.141 86.5413L190.184 95.7345C189.102 96.2331 188.233 97.1017 187.735 98.1839L178.541 118.141C176.755 122.019 171.245 122.019 169.459 118.141L160.265 98.1839C159.767 97.1017 158.898 96.2331 157.816 95.7345L137.859 86.5413C133.981 84.7552 133.981 79.2448 137.859 77.4587L157.816 68.2655C158.898 67.7669 159.767 66.8983 160.265 65.8161L169.459 45.8587Z" fill="#FF3E34"/>
<path d="M88.0622 207.5C85.3679 212.167 78.6321 212.167 75.9378 207.5L46.493 156.5C43.7987 151.833 47.1665 146 52.5551 146L111.445 146C116.833 146 120.201 151.833 117.507 156.5L88.0622 207.5Z" fill="#2776FF"/>
<path d="M82 53V111" stroke="black" stroke-width="12" stroke-linecap="round"/>
<path d="M111 82L53 82" stroke="black" stroke-width="12" stroke-linecap="round"/>
</svg>
